<svg id="圖層_1" data-name="圖層 1" xmlns="http://www.w3.org/2000/svg" viewBox="0 0 419.23 419.22"><defs><style>.cls-1{fill:#80bc63;}.cls-2{fill:#fff;opacity:0.8;}</style></defs><path class="cls-1" d="M230.34,433.41c115.59,0,209.62-94,209.62-209.61s-94-209.61-209.62-209.61S20.73,108.22,20.73,223.8,114.76,433.41,230.34,433.41Zm0-397.22C333.79,36.19,418,120.35,418,223.8S333.79,411.41,230.34,411.41,42.73,327.25,42.73,223.8,126.89,36.19,230.34,36.19Z" transform="translate(-20.73 -14.19)"/><path class="cls-2" d="M230.34,411.41C333.79,411.41,418,327.25,418,223.8S333.79,36.19,230.34,36.19,42.73,120.35,42.73,223.8,126.89,411.41,230.34,411.41ZM198.42,214.3q24.9-24.93,49.84-49.85c3.18-3.19,6.79-4.84,11.34-3.43a10.44,10.44,0,0,1,7.53,8.3c.93,4.44-1.12,7.81-4.17,10.84-13.5,13.44-26.94,27-40.44,40.39a33.73,33.73,0,0,1-3.79,2.8c15.35,15.31,29.8,29.77,44.29,44.19,3.38,3.35,5.34,7.07,3.77,11.95a10.58,10.58,0,0,1-16.62,5.4,29.73,29.73,0,0,1-3.37-3.08q-24.21-24.29-48.4-48.6C191.64,226.43,191.64,221.08,198.42,214.3Z" transform="translate(-20.73 -14.19)"/><path class="cls-1" d="M198.42,214.3q24.9-24.93,49.84-49.85c3.18-3.19,6.79-4.84,11.34-3.43a10.44,10.44,0,0,1,7.53,8.3c.93,4.44-1.12,7.81-4.17,10.84-13.5,13.44-26.94,27-40.44,40.39a33.73,33.73,0,0,1-3.79,2.8c15.35,15.31,29.8,29.77,44.29,44.19,3.38,3.35,5.34,7.07,3.77,11.95a10.58,10.58,0,0,1-16.62,5.4,29.73,29.73,0,0,1-3.37-3.08q-24.21-24.29-48.4-48.6C191.64,226.43,191.64,221.08,198.42,214.3Z" transform="translate(-20.73 -14.19)"/></svg>