<svg id="圖層_1" data-name="圖層 1" xmlns="http://www.w3.org/2000/svg" viewBox="0 0 384 384"><defs><style>.cls-1{fill:#ede0df;opacity:0.6;isolation:isolate;}.cls-2{fill:#fff;}</style></defs><circle class="cls-1" cx="192" cy="192" r="192"/><path class="cls-2" d="M289.38,149.83v83.58c-.44,3.68-.74,7.38-1.37,11-3.78,21.91-19.22,38-40.86,42.46-9.56,2-19.26,2.12-29,2.19q-25.32.17-50.66,0a186.37,186.37,0,0,1-24.88-1.46c-22.77-3.16-39.43-18.44-44.38-40.84-2-9.23-2.17-18.62-2.24-28-.12-14,0-28.1-.06-42.15,0-10.84-.11-21.68,1.2-32.46,1.2-9.9,4.22-19.18,10.29-27.26C117.78,103.2,132.14,97.36,148.74,96c3.26-.27,6.53-.43,9.79-.64H227c.75.08,1.49.22,2.24.24a89.64,89.64,0,0,1,16.34,1.56c21.3,4.34,35.42,16.65,41.35,37.84A92,92,0,0,1,289.38,149.83Zm-96.46,121.6c11.29.18,22.56-.19,33.84-.4a85,85,0,0,0,16-1.43c14-2.92,23.18-11,27-25,1.78-6.58,2-13.34,2.09-20.06.23-15.81.23-31.64.18-47.46,0-10.76.19-21.55-1.25-32.26-2.15-16-11.9-26.49-27.61-29.81-7.58-1.61-15.29-1.62-23-1.71q-27.13-.3-54.27,0a137.65,137.65,0,0,0-21.66,1.42c-15.07,2.55-25,11.94-28.39,26.88-1.51,6.69-1.67,13.51-1.73,20.29q-.27,30.35,0,60.7a103.94,103.94,0,0,0,1.42,18.81c2.76,14.36,10.87,23.8,25.19,27.59,6.09,1.61,12.34,1.87,18.55,2,11.21.26,22.42.63,33.64.44Z" transform="translate(-0.02)"/><path class="cls-2" d="M192.8,242.21A50,50,0,1,1,243,192.37,50,50,0,0,1,192.8,242.21Zm0-18a32,32,0,1,0-31.91-32.09v0a32,32,0,0,0,31.92,32.08h0Z" transform="translate(-0.02)"/><path class="cls-2" d="M244.58,152.24a11.55,11.55,0,0,1-11.69-11.41v-.34a11.84,11.84,0,0,1,11.71-11.87,12.09,12.09,0,0,1,11.91,11.79,11.84,11.84,0,0,1-11.85,11.83Z" transform="translate(-0.02)"/></svg>