<svg id="圖層_1" data-name="圖層 1" xmlns="http://www.w3.org/2000/svg" viewBox="0 0 384 384"><defs><style>.cls-1{fill:#43649b;opacity:0.6;isolation:isolate;}.cls-2{fill:#fff;}</style></defs><circle class="cls-1" cx="192" cy="192" r="192"/><path class="cls-2" d="M300.89,169.8v14.8c-.3,1.87-.57,3.75-.91,5.62-2.76,15.23-10.28,28-20.23,39.59s-21.48,21.34-33.51,30.59A399.91,399.91,0,0,1,199,292c-3.37,1.9-6.77,3.81-10.67,4.46s-5.62-.93-5.55-4.78a12.07,12.07,0,0,1,.15-1.9c.54-3.62,1.13-7.23,1.65-10.85,1.36-9.36-1.22-12.81-10.63-14.22a129.22,129.22,0,0,1-16.52-3.45c-23.2-6.65-43.27-18.3-57.66-38-17.07-23.45-20.71-49-9.13-75.89,8.5-19.74,23.46-33.75,42.15-43.81,23.89-12.87,49.46-17,76.29-13.76,20.08,2.45,38.6,9.17,55.07,21,16.74,12,28.9,27.51,34.5,47.67C299.69,162.16,300.2,166,300.89,169.8Zm-88.13,14a4.73,4.73,0,0,1-1.7-1.77L191.16,155c-2-2.72-4.08-3.57-6.45-2.76-2.6.89-3.78,2.77-3.79,6.12v29.59c0,4.23-.06,8.45,0,12.68a5.28,5.28,0,0,0,5.08,5.48,5.46,5.46,0,0,0,1.92-.29c2.47-.81,3.74-2.68,3.76-5.71V176.61c0-.71-.39-1.78.54-2,.71-.2,1.06.79,1.46,1.34l19.37,26.41a16.32,16.32,0,0,0,1.87,2.28,5,5,0,0,0,5.48,1.11,4.91,4.91,0,0,0,3.45-4.38c.08-.91.1-1.83.1-2.75V159.53a22.33,22.33,0,0,0-.13-2.95,5.32,5.32,0,0,0-5-4.67,5.51,5.51,0,0,0-5.33,3.75,10.14,10.14,0,0,0-.44,3.33v22.19a5,5,0,0,1-.29,2.58ZM232.12,179v20.93c0,4,2.24,6.14,6.18,6.15h19.87c3.87,0,6.2-2.06,6.22-5.37s-2.23-5.38-6.13-5.42c-4.3,0-8.6-.06-12.9,0-1.82,0-2.56-.7-2.48-2.5s.1-3.67,0-5.5c-.12-2,.58-2.9,2.77-2.83,4.36.14,8.74.09,13.1,0a5.37,5.37,0,0,0,5.63-5.09,2.26,2.26,0,0,0,0-.26,5.09,5.09,0,0,0-4.73-5.43h-.48c-4.58-.13-9.16,0-13.74-.09-1.23,0-2.51,0-2.51-1.78V164.6c0-1.22.6-1.77,1.85-1.75h6.34c2.47,0,4.94.08,7.4,0,3.78-.18,6-2.45,5.86-5.8-.13-3.11-2.44-5.19-6-5.22H238.72c-4.44,0-6.6,2.2-6.61,6.66,0,6.78,0,13.62,0,20.45Zm-108.73,0h0v21.33c0,3.65,2.15,5.74,5.81,5.77q10.25.06,20.48,0c3.49,0,6-2.37,6-5.48s-2.36-5.24-5.87-5.29c-4.23-.05-8.45,0-12.67,0-2.85,0-3-.14-3-3V157.47a5.63,5.63,0,0,0-5.49-5.58,5.45,5.45,0,0,0-5.23,5.57c-.07,7.1,0,14.28,0,21.46Zm38.08.05v21.55a5.34,5.34,0,1,0,10.68.17c.06-14.51,0-29,0-43.53a5.08,5.08,0,0,0-2.49-4.41,4.81,4.81,0,0,0-5.2-.29,5.3,5.3,0,0,0-3,5Z"/></svg>