<svg xmlns="http://www.w3.org/2000/svg" viewBox="0 0 388.29 388.29"><defs><style>.cls-1{fill:none;stroke:#80bc63;stroke-miterlimit:10;stroke-width:13px;}.cls-2{fill:#80bc63;}</style></defs><g id="圖層_2" data-name="圖層 2"><g id="圖層_1-2" data-name="圖層 1"><circle class="cls-1" cx="194.15" cy="194.15" r="187.65"/><path class="cls-2" d="M105.83,139.31c1.07-7.41,5.28-12.86,10.69-17.71,4-3.55,7.62-7.48,11.42-11.23a15,15,0,0,1,7.9-4.34,13.05,13.05,0,0,1,11.91,3.72c8.43,8.21,16.83,16.45,24.93,25,5.75,6,5.45,13.61-.34,19.63-4.58,4.77-9.33,9.37-14,14-2.29,2.29-2.38,2.64-1,5.66,3.53,8,8.57,15,14.15,21.63,9.53,11.35,20.15,21.5,32.62,29.64,3.58,2.34,7.48,4.07,11.23,6.07,1.73.92,2.9,0,4-1.1,4.47-4.52,8.92-9.06,13.41-13.56a17.25,17.25,0,0,1,8-5,12.93,12.93,0,0,1,12.63,3.62c8.39,8.14,16.73,16.35,24.8,24.82,5.66,5.94,5.63,13.48.14,19.39-5.32,5.72-10.86,11.24-16.51,16.64-4.4,4.22-9.93,6-16,6.24-12.11.39-23.36-3.05-34.25-7.88a186.86,186.86,0,0,1-53.07-35.34c-17.63-16.68-32.18-35.64-42.61-57.62-4.73-10-8.45-20.28-10-31.27Z"/></g></g></svg>