<svg xmlns="http://www.w3.org/2000/svg" viewBox="0 0 388.29 388.29"><defs><style>.cls-1{fill:#80bc63;}</style></defs><g id="圖層_1" data-name="圖層 1"><path class="cls-1" d="M343.82,184.65c-2.23,4.67-5.42,8.11-11,8.35a11.65,11.65,0,0,1-12.57-12c0-21.31,0-42.62,0-63.94,0-8-2.27-15.11-8.76-20.42C307,93,301.65,91.7,296,91.45c-3.79-.16-7.59,0-11.38-.06-1.91,0-2.61.68-2.55,2.57.09,3.11.08,6.23,0,9.34a11.87,11.87,0,0,1-23.72-.12c-.07-3.11-.08-6.23,0-9.34,0-1.72-.57-2.45-2.37-2.45q-24.08.06-48.17,0c-1.63,0-2.27.68-2.23,2.28.07,2.43,0,4.86,0,7.3,0,8.56-4.55,13.8-11.95,13.78s-11.81-5.29-11.82-13.93c0-2.33-.06-4.67,0-7,.06-1.74-.6-2.44-2.38-2.44q-23.64.06-47.29,0c-1.93,0-2.58.73-2.52,2.59.09,3,.06,6,0,9a11.87,11.87,0,0,1-23.73.13c-.07-3.12-.08-6.23,0-9.35,0-1.74-.62-2.45-2.39-2.41-5.35.1-10.69-.17-16,.56-9.1,1.23-17.66,10-18.66,19.19a94,94,0,0,0-.5,10.48q0,86.12,0,172.25c0,8.26,2.21,15.53,8.94,20.93,5,4,10.82,5.12,17,5.12q42.91,0,85.84,0c5.57,0,9.58,2.31,11.8,7.39,3.27,7.48-2.24,16.31-10.41,16.33-31.24.1-62.48.35-93.72-.1C67.52,343.26,48.2,325.16,45.2,305a61.59,61.59,0,0,1-.62-9c0-60.14.22-120.29-.1-180.43-.13-23.17,16.7-44.74,41.71-47.63,5.48-.64,11.08-.31,16.62-.21,2.45,0,3.33-.79,3.13-3.19-.16-1.84.1-3.71-.06-5.54-.6-6.83,2.08-11.7,8.41-14.48h7c6.31,2.78,9,7.63,8.4,14.45-.14,1.54,0,3.11,0,4.66,0,4,0,4,3.92,4,13.22,0,26.43,0,39.65,0,2.68,0,6.1,1.19,7.88-.56s.81-5.38.63-8.12c-.44-6.83,2.14-11.67,8.45-14.45h7c6.32,2.78,9,7.63,8.41,14.45-.14,1.54,0,3.11,0,4.66,0,4,0,4,3.92,4,13.41,0,26.82,0,40.22,0,2.69,0,6.11,1.19,7.89-.56s.81-5.38.63-8.12c-.44-6.83,2.14-11.67,8.45-14.45h7c6.32,2.78,9,7.64,8.41,14.47-.17,1.93.08,3.89-.05,5.83-.15,2.12.6,3,2.81,2.9,4.28-.13,8.56-.06,12.84,0A45.49,45.49,0,0,1,329,80.07c8.29,7.56,12.94,17.11,14.86,28.07Z"/><path class="cls-1" d="M343.82,281c-1.45,8.47-3.53,16.74-7.67,24.35-11.6,21.34-29.33,34.42-53.42,37.63-37.42,5-70.62-18.61-79-55.39-8.21-36.06,15.14-74.19,51-83.26,37.24-9.41,73.45,10.18,85.86,46.43,1.55,4.53,2.26,9.24,3.25,13.89Zm-70.58,38.87c26.81-.66,47-21.34,46.84-47.21-.15-26.45-20.81-46.73-46.87-46.76a46.41,46.41,0,0,0-47,46.94C226.24,299.4,247.09,319.4,273.24,319.89Z"/><path class="cls-1" d="M105.92,166.94A11.87,11.87,0,1,1,117.53,179,11.73,11.73,0,0,1,105.92,166.94Z"/><path class="cls-1" d="M168.37,179a11.87,11.87,0,1,1,12.11-11.56A11.72,11.72,0,0,1,168.37,179Z"/><path class="cls-1" d="M219.38,179a11.87,11.87,0,1,1,11.91-11.76A11.71,11.71,0,0,1,219.38,179Z"/><path class="cls-1" d="M282.1,167.33a11.87,11.87,0,1,1-11.6-12.07A11.72,11.72,0,0,1,282.1,167.33Z"/><path class="cls-1" d="M105.92,217.77a11.87,11.87,0,1,1,11.62,12A11.73,11.73,0,0,1,105.92,217.77Z"/><path class="cls-1" d="M180.48,218.07a11.88,11.88,0,1,1-11.68-12A11.72,11.72,0,0,1,180.48,218.07Z"/><path class="cls-1" d="M129.66,268.86a11.87,11.87,0,1,1-11.69-12A11.72,11.72,0,0,1,129.66,268.86Z"/><path class="cls-1" d="M168.72,256.88a11.88,11.88,0,1,1-12,11.69A11.73,11.73,0,0,1,168.72,256.88Z"/><path class="cls-1" d="M261.28,260.88c0-4.08-.07-8.16,0-12.24a11.86,11.86,0,0,1,23.72.06c.07,3.21.11,6.42,0,9.62-.07,2.07.76,2.78,2.75,2.66a20.65,20.65,0,0,1,4.65.16c5.9,1,9.91,6.45,9.54,12.78a11.66,11.66,0,0,1-11.1,10.76q-9.18.19-18.37,0a11.55,11.55,0,0,1-11.17-11.26C261.2,269.24,261.28,265.06,261.28,260.88Z"/></g></svg>