<svg xmlns="http://www.w3.org/2000/svg" viewBox="0 0 397 397"><defs><style>.cls-1{fill:none;stroke:#80bc63;stroke-miterlimit:10;stroke-width:13px;}.cls-2{fill:#80bc63;}</style></defs><g id="圖層_2" data-name="圖層 2"><g id="圖層_1-2" data-name="圖層 1"><circle class="cls-1" cx="198.5" cy="198.5" r="192"/><path class="cls-2" d="M197,295.4a360.42,360.42,0,0,1-36.51-41.56c-11.25-15-21.3-30.78-28.18-48.35-4.05-10.33-6.77-21-6.55-32.17A72.92,72.92,0,0,1,191.23,102c38.6-4,73.09,23.22,79.18,61,2.19,13.6.11,26.71-4.58,39.52-6.27,17.13-15.67,32.53-26.3,47.24A357.26,357.26,0,0,1,200,295.4ZM165.36,174c.18,18.33,14,33.32,33.16,33.4a32.61,32.61,0,0,0,33-32.51c.31-18.35-13.69-33.4-32.88-33.58C180.63,141.18,166,155.08,165.36,174Z"/></g></g></svg>