<svg id="圖層_1" data-name="圖層 1" xmlns="http://www.w3.org/2000/svg" viewBox="0 0 384 384"><defs><style>.cls-1{fill:#ede0df;opacity:0.6;isolation:isolate;}.cls-2{fill:#fff;}</style></defs><circle class="cls-1" cx="192" cy="192" r="192"/><path class="cls-2" d="M291.39,118.47V266.69a31.76,31.76,0,0,1-5.13,12.53c-4.83,6.78-11.49,10.62-19.57,12.17H215.74c-.05-.57-.14-1.15-.14-1.72v-66c0-1.75.53-2.34,2.3-2.32,8.17.07,16.34,0,24.51.08,2,0,2.67-.74,3-2.57,1.58-9.84,3.25-19.66,4.89-29.48.39-2.31.31-2.44-2-2.44h-30c-2.7,0-2.71,0-2.72-2.61V166.19c0-3.09,0-3.09,3-3.09H248.5c1.5,0,2.24-.37,2.23-2q-.07-15.24,0-30.49c0-1.41-.54-1.95-1.94-1.93-12,.2-23.93-.44-35.88.34-9.92.65-17.91,5.19-24.15,12.83-5.67,7-7.68,15.12-7.62,23.94v18.91c0,1.77-.56,2.33-2.32,2.31-6.11-.08-12.22,0-18.33,0-2.47,0-2.54.06-2.54,2.46V219c0,2.38.08,2.44,2.55,2.45h17.8c2.84,0,2.85,0,2.85,2.87v64.84c0,.77-.09,1.53-.14,2.3H118.47c-.37-.09-.74-.2-1.12-.27a29.05,29.05,0,0,1-23.72-28.59V122.31a28.88,28.88,0,0,1,28.66-28.66q70.3-.06,140.63,0A27.77,27.77,0,0,1,279.32,99C286.08,103.77,289.85,110.44,291.39,118.47Z"/></svg>