<svg xmlns="http://www.w3.org/2000/svg" viewBox="0 0 388.29 388.29"><defs><style>.cls-1{fill:#ffa015;}</style></defs><g id="圖層_1" data-name="圖層 1"><path class="cls-1" d="M44.59,181.45c1.07-7.49,2-15,3.83-22.36A147.52,147.52,0,0,1,93.53,83.32c21.25-19.31,46.06-31.78,74.41-36.4,46.09-7.51,87.49,3.4,123.23,33.64,27.35,23.15,44.19,52.74,50.25,88.09,5.79,33.78.56,66-15.69,96.26-2.11,3.94-4.45,7.76-6.87,11.51-4.11,6.36-11.09,8.11-16.89,4.41s-7.37-10.94-3.19-17.37c9.67-14.87,16.38-30.94,19.11-48.47,5.48-35.23-2-67.52-23.53-96.07-20.93-27.8-48.89-44.72-83.43-49-44.54-5.57-82.19,8.84-112.07,42.48a118.89,118.89,0,0,0-30,69.84c-3.11,35,6.53,66.4,29.37,93.35,18.54,21.88,42,35.93,70.09,41.71,30.71,6.32,59.88,1.72,87.36-13.46,2.53-1.4,4.91-3.19,7.94-3.47,6-.56,11,2.53,12.83,7.9,1.9,5.65-.23,11.31-5.63,14.52a151.3,151.3,0,0,1-41.39,17,226.13,226.13,0,0,1-23.23,3.92H181.71c-4.51-.62-9.05-1.1-13.53-1.89A150,150,0,0,1,48.42,229.49c-1.8-7.37-2.75-14.87-3.83-22.36Z"/><path class="cls-1" d="M160,206.16c-6.12,0-12.25,0-18.37,0-7-.05-12.06-5.09-12.06-11.88s5-11.82,12.07-11.84c12.35,0,24.7-.09,37,0,2.71,0,3.48-.79,3.45-3.47-.12-12.44-.08-24.88,0-37.33a11.79,11.79,0,0,1,8.95-11.52,12,12,0,0,1,13.41,5.92,12.2,12.2,0,0,1,1.38,6.17c0,12.35,0,24.7-.06,37,0,2.39.69,3.2,3.14,3.18,12.54-.1,25.08-.07,37.62,0a11.77,11.77,0,0,1,11.7,9.79A12,12,0,0,1,250,205.69a14.4,14.4,0,0,1-4.61.47c-12.15,0-24.3.06-36.45,0-2.39,0-3.21.68-3.19,3.13.1,12.54.08,25.08,0,37.62A11.81,11.81,0,0,1,196,258.58a12,12,0,0,1-13.37-8,13.33,13.33,0,0,1-.55-4.6c0-12.15-.08-24.31,0-36.46,0-2.7-.78-3.53-3.47-3.45C172.46,206.29,166.23,206.17,160,206.16Z"/></g></svg>