<svg xmlns="http://www.w3.org/2000/svg" viewBox="0 0 388.29 388.29"><defs><style>.cls-1{fill:none;stroke:#80bc63;stroke-miterlimit:10;stroke-width:13px;}.cls-2{fill:#80bc63;}</style></defs><g id="圖層_1" data-name="圖層 1"><circle class="cls-1" cx="194.15" cy="194.15" r="187.65"/><path class="cls-2" d="M296.37,250.46,294.59,256,234,194.14l60.64-61.81,1.78,5.53Z"/><path class="cls-2" d="M102.45,123.46c2.93-.39,5.85-1.12,8.78-1.13q73.46-.1,146.92,0c6.59,0,13.18-.11,19.76.06a70.51,70.51,0,0,1,8.46,1.27c-.86,1-1.23,1.41-1.64,1.82l-77.12,76.74c-5.53,5.5-12.06,7.55-19.5,4.8a20.78,20.78,0,0,1-7.11-4.6q-39-38.53-77.73-77.25c-.28-.27-.53-.58-.79-.87Z"/><path class="cls-2" d="M103.09,264.6l61-62.14c2.94,3,5.61,5.62,8.27,8.3A29.68,29.68,0,0,0,187,219.25c11.06,2.5,20.65-.35,28.74-8.23,2.76-2.69,5.42-5.49,8.33-8.46l61.11,62.34a51,51,0,0,1-7.57,1.07c-13.77.13-27.55.06-41.32.06q-62.56,0-125.14,0A18.86,18.86,0,0,1,103.09,264.6Z"/><path class="cls-2" d="M154.44,194.19,93.92,255.93a17.76,17.76,0,0,1-2-8.64q0-24,0-47.92c0-19.36-.05-38.73.06-58.09,0-2.84.77-5.67,1.18-8.51l.86-.19Z"/></g></svg>