<svg id="圖層_1" data-name="圖層 1" xmlns="http://www.w3.org/2000/svg" viewBox="0 0 512 450.84"><defs><style>.cls-1{fill:#fff;}</style></defs><path class="cls-1" d="M512,80.48c-7.54,26.07-15.14,52.12-22.62,78.21q-18.3,63.87-36.47,127.78c-3.1,10.84-7.79,14.36-19.1,14.36H170.86a36.74,36.74,0,0,0-8.93.71,14.57,14.57,0,0,0-11.34,14.06c0,6.62,4.8,12.24,11.55,13.86a37.94,37.94,0,0,0,9,.67H432c2.17,0,4.34-.08,6.5.09a15.08,15.08,0,0,1,13.79,15.58,14.86,14.86,0,0,1-13.93,14.91c-6.64.3-13.32.06-20.16.37,11.87,3.64,21.35,10.41,27.7,21.07,6.43,10.81,8.31,22.49,5,34.64-6.09,22.22-24.68,35.21-48,33.92-19.67-1.1-37.61-17.58-40.81-37.93-3-19.14,5.86-42.77,34.11-51.77H205.09c13.66,4.06,23.5,11.21,29.75,22.8S242,407.52,238,420.06c-6.35,19.93-26.44,32.62-48.46,30.56-19.48-1.82-37.08-19-39.58-38.72-2.65-20.8,8.27-42.92,33.72-51.08-6.21,0-12.41.06-18.61,0-21.69-.25-38.73-13.71-44.31-34.95-5-18.9,4-39.71,22-49.79,3.59-2,3.37-4.25,2.68-7.35q-13.49-60.44-26.91-120.9Q106.09,92,93.74,36.17c-.85-3.91-2.33-5.48-6.58-5.44-22.82.21-45.66-.14-68.48.23C10,31.1,3.8,28.3,0,20.48v-10C3.8,2.65,10-.1,18.68,0c27.33.34,54.67.12,82,.13,13.11,0,17.64,3.56,20.49,16.26,2.78,12.35,5.75,24.66,8.07,37.09,1,5.36,3.22,6.78,8.58,6.77Q315.57,60,493.31,60C502,60,508.19,62.66,512,70.48ZM307.62,90.83H144.18c-6.31,0-6.42.16-5.1,6.11q18.66,84.09,37.24,168.2c.83,3.8,2.47,5.06,6.38,5.06q118.7-.16,237.41,0c3.87,0,5.55-1.32,6.59-5q23.88-84.09,48-168.11c1.78-6.25,1.73-6.27-4.6-6.27ZM209.41,405.52a14.41,14.41,0,1,0-14.32,14.37A14.7,14.7,0,0,0,209.41,405.52Zm197.75,14.37a14.41,14.41,0,1,0-14.57-14.12A14.71,14.71,0,0,0,407.16,419.89Z"/></svg>