<svg id="圖層_1" data-name="圖層 1" xmlns="http://www.w3.org/2000/svg" viewBox="0 0 278.38 301.22"><defs><style>.cls-1{fill:#224a71;}.cls-2{fill:#416094;}</style></defs><path class="cls-1" d="M383.86,543.12c-7.93-.33-15.87-1-23.8-.91-10.15.08-20.28.77-30.43,1.12q-10.06.34-20.15.46c-6.84.07-13.69.13-20.52-.09a13.13,13.13,0,0,1-5.69-1.76c-4.32-2.39-8.56-4.94-12.64-7.71a6.52,6.52,0,0,1-2.57-3.92c-1.4-9.09-2.74-18.2-3.67-27.35-.41-4,.41-8.1.27-12.14s-.93-8.05-1.19-12.09c-.28-4.39-.3-8.79-.38-13.19-.21-11.2-.44-22.4-.53-33.6,0-2.91.45-5.82.62-8.74.31-5.3.54-10.6.85-15.89.12-2.06-.9-2.87-2.8-2.88-5.33,0-10.67-.21-16,0-7.49.31-15,.87-22.46,1.43-5.82.43-11.62,1.09-17.44,1.5-1.32.1-2.66-.49-4-.6-3-.25-6.1-.32-9.14-.62-6.44-.62-8.92-1.69-6.87-8.06,4.17-13,10.74-24.85,17.24-36.75,3.81-7,7.54-14,11.52-20.85,2.39-4.14,5.29-8,7.78-12.07,1.95-3.21,3.23-6.87,5.47-9.83,7-9.14,13.83-18.4,21.49-26.94,7.35-8.19,15.72-15.47,23.51-23.28,6-6,11.93-12.06,17.51-18.42,2.34-2.67,5.32-3.32,8.24-4a72.22,72.22,0,0,1,13.6-2.2c5.69-.3,11.41-2.13,17.12-.22a8.41,8.41,0,0,1,3.39,1.81c3.77,3.88,7.23,8.06,11.08,11.84,7.21,7.08,14.73,13.83,21.9,20.94,8.27,8.21,16.27,16.71,24.45,25,5.16,5.23,10.84,10,15.56,15.61,8,9.51,16.86,18.36,22.91,29.49,2.76,5.06,7.13,9.22,10.61,13.9q5.69,7.68,11.08,15.59c3.82,5.58,7.28,11.43,11.35,16.83,1.77,2.35,2.61,4.76,1.05,6.77a9,9,0,0,1-6,3c-6.36.26-12.74-.31-19.11-.24-4,.05-8,.74-12.05,1-2.68.19-5.37.13-8.06.2-4.08.11-8.18.11-12.25.38-3.75.25-4.28,1.2-4.27,5,0,4.92-.44,9.84-.32,14.75.16,7.12.78,14.22,1,21.34q.27,11,0,22c-.24,12.45-.64,24.9-1,37.34-.07,1.85-.7,3.68-.82,5.54-.44,7.2-.65,14.42-1.23,21.61a25.43,25.43,0,0,1-1.92,7.2c-1,2.63-3.79,2.29-6,2.58a48.68,48.68,0,0,1-6.28.06Zm-173.75-144,.85,1.23c5.7-.31,11.41-.56,17.11-1,7-.5,13.94-1.25,20.93-1.66,6.83-.39,13.68-.37,20.51-.73,4.36-.24,8.69-1,13.05-1.25,3.39-.18,4.59,1.1,4.69,4.4q.22,7.66.33,15.32c.11,8.45.14,16.9.27,25.35.15,8.75.53,17.5.52,26.25,0,6.33-.41,12.66-.81,19-.28,4.48-1.16,8.95-1.21,13.43-.12,11.05-.85,22.14,1.79,33.09.88,3.63,1.2,4.22,5.09,4.1,2.1-.06,4.2.12,6.3.14,10.37.09,20.74.32,31.11.2s20.47-.89,30.71-.86c8.94,0,17.88.79,26.82,1.2,3.48.16,5.24-1.73,4.95-5.22a11.35,11.35,0,0,1-.05-2.18c.54-5.58,1.32-11.15,1.6-16.75.31-5.93,0-11.89.22-17.83.33-9.61,1-19.2,1.2-28.81.15-7.83-.24-15.67-.35-23.51-.14-9.08-.2-18.15-.35-27.22-.06-3.42.31-7-.65-10.19a6.33,6.33,0,0,1,1.24-6c.6-.82,3.08-.26,4.71-.27.72,0,1.45.25,2.17.22q12.48-.54,25-1.15c4-.2,8.07-.66,12.11-.72,3.79-.06,7.6.47,11.39.34,4.38-.15,5-1.31,2.6-4.9-4.29-6.44-8.67-12.82-13.22-19.08Q430.49,360,420,346.18c-4.28-5.66-8.63-11.27-13.2-16.69-4.22-5-8.73-9.81-13.18-14.64-3.82-4.13-7.7-8.19-11.61-12.23-4.2-4.34-8.48-8.62-12.73-12.92l-7.88-7.95c-2.87-2.87-5.73-5.74-8.62-8.58-1.27-1.25-2.6-2.43-3.91-3.65-5.95-5.54-12-11-17.8-16.69-2.95-2.92-3.36-3.35-6.9-.8-6.22,4.49-12.62,8.79-18.42,13.78a229,229,0,0,0-18.39,17.81c-4.24,4.58-7.77,9.83-11.51,14.86C268,309,259.91,319.2,252.69,330.06c-7.9,11.88-14.89,24.36-22.37,36.53-4.53,7.38-9.25,14.66-13.84,22C214.3,392.08,212.23,395.63,210.11,399.14Zm-19.24.45c4.8,0,8.66.61,12.12-.3,1.42-.37,1.94-4,3-6.15a22.54,22.54,0,0,1,2-3.2c3-4.14,6.22-8.13,9-12.42,3.1-4.82,5.71-9.95,8.68-14.86,6-9.92,12-19.87,18.21-29.63,4.71-7.35,9.62-14.61,14.87-21.58,8.39-11.12,16.7-22.34,25.87-32.79,7.13-8.12,15.49-15.15,23.35-22.62,1.79-1.7,3.76-3.2,5.65-4.79l-.55-1.14a20.82,20.82,0,0,0-3.62,0c-2.55.45-5.15,1.82-7.57,1.51-4.33-.55-6.91,2.4-9.65,4.35-3.91,2.78-7,6.71-10.43,10.2-9.9,10.14-19.9,20.19-29.62,30.5a162.8,162.8,0,0,0-14.07,16.67c-4.85,6.78-9,14.05-13.31,21.2q-6,9.93-11.63,20.06C209,362,204.94,369.37,201,376.83c-1.93,3.68-3.47,7.57-5.16,11.37C194.34,391.65,192.84,395.11,190.87,399.59Zm90.85,133.93,1-.58c-.43-2.86-1.25-5.73-1.21-8.58.15-11.06.55-22.12.91-33.17.28-8.46.66-16.92,1-25.38.1-2.51.29-5,.17-7.52-.23-4.8-.69-9.6-.95-14.4-.11-2,.11-4,.06-6-.24-10.64-.62-21.29-.74-31.93,0-2.67-1-3.81-3.48-3.51a57.77,57.77,0,0,0-7.36,1.48,2.38,2.38,0,0,0-1.51,1.6c-.17,4-.15,8.09-.18,12.15-.06,6.66-.08,13.32-.18,20-.14,8.69-.65,17.38-.44,26.05.26,10.34,1.26,20.65,1.66,31,.38,9.64.6,19.23,2.34,28.81C273.84,529.37,278.31,530.65,281.72,533.52Z" transform="translate(-184.62 -242.63)"/><path class="cls-2" d="M210.11,399.14c2.12-3.51,4.19-7.06,6.37-10.54,4.59-7.35,9.31-14.63,13.84-22,7.48-12.17,14.47-24.65,22.37-36.53,7.22-10.86,15.34-21.1,23.12-31.58,3.74-5,7.27-10.28,11.51-14.86a229,229,0,0,1,18.39-17.81c5.8-5,12.2-9.29,18.42-13.78,3.54-2.55,3.95-2.12,6.9.8,5.77,5.73,11.85,11.15,17.8,16.69,1.31,1.22,2.64,2.4,3.91,3.65,2.89,2.84,5.75,5.71,8.62,8.58l7.88,7.95c4.25,4.3,8.53,8.58,12.73,12.92,3.91,4,7.79,8.1,11.61,12.23,4.45,4.83,9,9.61,13.18,14.64,4.57,5.42,8.92,11,13.2,16.69q10.5,13.86,20.74,27.9c4.55,6.26,8.93,12.64,13.22,19.08,2.39,3.59,1.78,4.75-2.6,4.9-3.79.13-7.6-.4-11.39-.34-4,.06-8.07.52-12.11.72q-12.48.63-25,1.15c-.72,0-1.45-.22-2.17-.22-1.63,0-4.11-.55-4.71.27a6.33,6.33,0,0,0-1.24,6c1,3.17.59,6.77.65,10.19.15,9.07.21,18.14.35,27.22.11,7.84.5,15.68.35,23.51-.18,9.61-.87,19.2-1.2,28.81-.19,5.94.09,11.9-.22,17.83-.28,5.6-1.06,11.17-1.6,16.75a11.35,11.35,0,0,0,.05,2.18c.29,3.49-1.47,5.38-4.95,5.22-8.94-.41-17.88-1.17-26.82-1.2-10.24,0-20.47.73-30.71.86s-20.74-.11-31.11-.2c-2.1,0-4.2-.2-6.3-.14-3.89.12-4.21-.47-5.09-4.1-2.64-11-1.91-22-1.79-33.09,0-4.48.93-8.95,1.21-13.43.4-6.33.8-12.66.81-19,0-8.75-.37-17.5-.52-26.25-.13-8.45-.16-16.9-.27-25.35q-.1-7.67-.33-15.32c-.1-3.3-1.3-4.58-4.69-4.4-4.36.23-8.69,1-13.05,1.25-6.83.36-13.68.34-20.51.73-7,.41-13.95,1.16-20.93,1.66-5.7.4-11.41.65-17.11,1Z" transform="translate(-184.62 -242.63)"/></svg>